# Exported from ProBuilder
# http://www.procore3d.com/probuilder
# 4/1/2020 1:51:55 PM

mtllib ./Radio.mtl
o Radio

g Radio
v 231.3798 56.55782 -44.71563
v 231.3798 56.18736 -44.71563
v 231.2876 56.18736 -44.71563
v 231.1031 56.18736 -44.71563
v 231.0108 56.18736 -44.71563
v 231.0108 56.55782 -44.71563
v 231.1953 56.18736 -44.71563
v 231.1031 56.18736 -44.71563
v 231.0108 56.55782 -44.71563
v 231.0108 56.55782 -45.29926
v 231.0108 56.18736 -45.29926
v 231.1031 56.18736 -45.29926
v 231.2876 56.18736 -45.29926
v 231.3798 56.18736 -45.29926
v 231.3798 56.55782 -45.29926
v 231.1953 56.18736 -45.29926
v 231.2876 56.18736 -45.29926
v 231.3798 56.55782 -45.29926
v 231.3798 56.18736 -45.29926
v 231.3503 56.18726 -45.25256
v 231.3503 56.18726 -45.17789
v 231.0403 56.18726 -45.17789
v 231.0403 56.18726 -45.25256
v 231.0108 56.18736 -45.29926
v 231.2728 56.18726 -44.76232
v 231.2728 56.18726 -44.837
v 231.1953 56.18726 -44.76232
v 231.2728 56.18726 -45.17789
v 231.2728 56.18726 -45.25256
v 231.1953 56.18726 -45.25256
v 231.3798 56.55782 -44.71563
v 231.2876 56.18736 -44.71563
v 231.1953 56.18736 -44.71563
v 231.3798 56.55782 -44.71563
v 231.0108 56.18736 -44.71563
v 231.0108 56.18736 -45.29926
v 231.0108 56.55782 -44.71563
v 231.0108 56.55782 -45.29926
v 231.0108 56.55782 -45.29926
v 231.1031 56.18736 -45.29926
v 231.1953 56.18736 -45.29926
v 231.0108 56.55782 -45.29926
v 231.3798 56.55782 -44.71563
v 231.0108 56.55782 -44.71563
v 231.3798 56.55782 -45.29926
v 231.0108 56.55782 -45.29926
v 231.3798 56.18736 -45.29926
v 231.2876 56.18736 -45.29926
v 231.3503 56.18726 -45.25256
v 231.2728 56.18726 -45.25256
v 231.1953 56.18736 -45.29926
v 231.2728 56.18726 -45.25256
v 231.2876 56.18736 -45.29926
v 231.1953 56.18726 -45.25256
v 231.1953 56.18726 -45.25256
v 231.1953 56.18736 -45.29926
v 231.1178 56.18726 -45.25256
v 231.1031 56.18736 -45.29926
v 231.1178 56.18726 -45.25256
v 231.1031 56.18736 -45.29926
v 231.0403 56.18726 -45.25256
v 231.0108 56.18736 -45.29926
v 231.3798 56.18736 -45.29926
v 231.3503 56.18726 -45.17789
v 231.3503 56.18726 -45.00744
v 231.3798 56.18736 -44.71563
v 231.3503 56.18726 -45.00744
v 231.3503 56.18726 -44.837
v 231.3798 56.18736 -44.71563
v 231.3503 56.18726 -44.76232
v 231.0403 56.18726 -45.00744
v 231.0403 56.18726 -45.17789
v 231.0108 56.18736 -45.29926
v 231.0108 56.18736 -44.71563
v 231.0403 56.18726 -45.00744
v 231.0108 56.18736 -44.71563
v 231.0403 56.18726 -44.837
v 231.0403 56.18726 -44.76232
v 231.3798 56.18736 -44.71563
v 231.3503 56.18726 -44.76232
v 231.2876 56.18736 -44.71563
v 231.2728 56.18726 -44.76232
v 231.2876 56.18736 -44.71563
v 231.2728 56.18726 -44.76232
v 231.1953 56.18736 -44.71563
v 231.1953 56.18726 -44.76232
v 231.1953 56.18736 -44.71563
v 231.1953 56.18726 -44.76232
v 231.1178 56.18726 -44.76232
v 231.1031 56.18736 -44.71563
v 231.1178 56.18726 -44.76232
v 231.0403 56.18726 -44.76232
v 231.1031 56.18736 -44.71563
v 231.0108 56.18736 -44.71563
v 231.1953 56.18726 -45.25256
v 231.1178 56.18726 -45.25256
v 231.1178 56.18726 -45.17789
v 231.1178 56.18726 -45.17789
v 231.2728 56.18726 -45.17789
v 231.1178 56.18726 -45.17789
v 231.1178 56.18726 -45.00744
v 231.2728 56.18726 -45.00744
v 231.2728 56.18726 -45.00744
v 231.1178 56.18726 -45.00744
v 231.1178 56.18726 -44.837
v 231.2728 56.18726 -44.837
v 231.1178 56.18726 -44.837
v 231.1953 56.18726 -44.76232
v 231.2728 56.18726 -44.837
v 231.1178 56.18726 -44.76232
v 231.3553 56.15038 -45.18337
v 231.2753 56.15038 -45.26045
v 231.2753 56.15038 -45.18337
v 231.3553 56.15038 -45.26045
v 231.3503 56.18726 -44.837
v 231.2728 56.18726 -45.00744
v 231.2728 56.18726 -44.837
v 231.3503 56.18726 -45.00744
v 231.3503 56.18726 -45.00744
v 231.2728 56.18726 -45.17789
v 231.2728 56.18726 -45.00744
v 231.3503 56.18726 -45.17789
v 231.3553 56.15038 -44.75443
v 231.2753 56.15038 -44.83151
v 231.2753 56.15038 -44.75443
v 231.3553 56.15038 -44.83151
v 231.1153 56.15038 -45.18337
v 231.0354 56.15038 -45.26045
v 231.0354 56.15038 -45.18337
v 231.1153 56.15038 -45.26045
v 231.1178 56.18726 -44.837
v 231.0403 56.18726 -45.00744
v 231.0403 56.18726 -44.837
v 231.1178 56.18726 -45.00744
v 231.1178 56.18726 -45.00744
v 231.0403 56.18726 -45.17789
v 231.0403 56.18726 -45.00744
v 231.1178 56.18726 -45.17789
v 231.1153 56.15038 -44.75443
v 231.0354 56.15038 -44.83151
v 231.0354 56.15038 -44.75443
v 231.1153 56.15038 -44.83151
v 231.2728 56.18726 -45.25256
v 231.2728 56.18726 -45.17789
v 231.2753 56.15038 -45.26045
v 231.2753 56.15038 -45.18337
v 231.2728 56.18726 -45.17789
v 231.3503 56.18726 -45.17789
v 231.2753 56.15038 -45.18337
v 231.3553 56.15038 -45.18337
v 231.3503 56.18726 -45.17789
v 231.3503 56.18726 -45.25256
v 231.3553 56.15038 -45.18337
v 231.3553 56.15038 -45.26045
v 231.3503 56.18726 -45.25256
v 231.2728 56.18726 -45.25256
v 231.3553 56.15038 -45.26045
v 231.2753 56.15038 -45.26045
v 231.0403 56.18726 -45.25256
v 231.0403 56.18726 -45.17789
v 231.0354 56.15038 -45.26045
v 231.0354 56.15038 -45.18337
v 231.0403 56.18726 -45.17789
v 231.1178 56.18726 -45.17789
v 231.0354 56.15038 -45.18337
v 231.1153 56.15038 -45.18337
v 231.1178 56.18726 -45.17789
v 231.1178 56.18726 -45.25256
v 231.1153 56.15038 -45.18337
v 231.1153 56.15038 -45.26045
v 231.1178 56.18726 -45.25256
v 231.0403 56.18726 -45.25256
v 231.1153 56.15038 -45.26045
v 231.0354 56.15038 -45.26045
v 231.0403 56.18726 -44.837
v 231.0403 56.18726 -44.76232
v 231.0354 56.15038 -44.83151
v 231.0354 56.15038 -44.75443
v 231.0403 56.18726 -44.76232
v 231.1178 56.18726 -44.76232
v 231.0354 56.15038 -44.75443
v 231.1153 56.15038 -44.75443
v 231.1178 56.18726 -44.76232
v 231.1178 56.18726 -44.837
v 231.1153 56.15038 -44.75443
v 231.1153 56.15038 -44.83151
v 231.1178 56.18726 -44.837
v 231.0403 56.18726 -44.837
v 231.1153 56.15038 -44.83151
v 231.0354 56.15038 -44.83151
v 231.2728 56.18726 -44.837
v 231.2728 56.18726 -44.76232
v 231.2753 56.15038 -44.83151
v 231.2753 56.15038 -44.75443
v 231.2728 56.18726 -44.76232
v 231.3503 56.18726 -44.76232
v 231.2753 56.15038 -44.75443
v 231.3553 56.15038 -44.75443
v 231.3503 56.18726 -44.76232
v 231.3503 56.18726 -44.837
v 231.3553 56.15038 -44.75443
v 231.3553 56.15038 -44.83151
v 231.3503 56.18726 -44.837
v 231.2728 56.18726 -44.837
v 231.3553 56.15038 -44.83151
v 231.2753 56.15038 -44.83151
v 231.3798 56.18736 -45.29926
v 231.3798 56.18736 -44.71563
v 231.3799 56.21091 -45.26215
v 231.3799 56.21091 -44.75274
v 231.3798 56.55782 -45.29926
v 231.3798 56.18736 -45.29926
v 231.3799 56.53426 -45.26215
v 231.3799 56.21091 -45.26215
v 231.3798 56.18736 -44.71563
v 231.3798 56.55782 -44.71563
v 231.3799 56.21091 -44.75274
v 231.3799 56.53426 -44.75274
v 231.3798 56.55782 -44.71563
v 231.3798 56.55782 -45.29926
v 231.3799 56.53426 -44.75274
v 231.3799 56.53426 -45.26215
v 231.3799 56.21091 -45.26215
v 231.3799 56.21091 -44.75274
v 231.3535 56.21738 -45.25196
v 231.3535 56.21738 -44.76293
v 231.3799 56.53426 -45.26215
v 231.3799 56.21091 -45.26215
v 231.3535 56.5278 -45.25196
v 231.3535 56.21738 -45.25196
v 231.3799 56.21091 -44.75274
v 231.3799 56.53426 -44.75274
v 231.3535 56.21738 -44.76293
v 231.3535 56.5278 -44.76293
v 231.3799 56.53426 -44.75274
v 231.3799 56.53426 -45.26215
v 231.3535 56.5278 -44.76293
v 231.3535 56.5278 -45.25196
v 231.3535 56.21738 -45.25196
v 231.3535 56.21738 -44.76293
v 231.3535 56.5278 -45.25196
v 231.3535 56.5278 -44.76293

vn 0 0 1
vn 0 0 1
vn 0 0 1
vn 0 0 1
vn 0 0 1
vn 0 0 1
vn 0 0 1
vn 0 0 1
vn 0 0 1
vn 0 0 -1
vn 0 0 -1
vn 0 0 -1
vn 0 0 -1
vn 0 0 -1
vn 0 0 -1
vn 0 0 -1
vn 0 0 -1
vn 0 0 -1
vn 0.002258214 -0.9999954 -0.000713943
vn 0.001693661 -0.999996 -0.001070915
vn 0.002258214 -0.9999962 0
vn -0.002258214 -0.9999961 0
vn -0.001693661 -0.9999959 -0.001070915
vn -0.002258214 -0.9999953 -0.000713943
vn 0 -0.9999984 0.001427884
vn 0 -1 0
vn 0 -0.9999988 0.001070913
vn 0 -1 0
vn 0 -0.9999984 -0.001427886
vn 0 -0.9999988 -0.001070915
vn 0 0 1
vn 0 0 1
vn 0 0 1
vn 0 0 1
vn -1 0 0
vn -1 0 0
vn -1 0 0
vn -1 0 0
vn 0 0 -1
vn 0 0 -1
vn 0 0 -1
vn 0 0 -1
vn 0 1 0
vn 0 1 0
vn 0 1 0
vn 0 1 0
vn 0.002258214 -0.9999954 -0.000713943
vn 0 -0.9999977 -0.002141829
vn 0.001693661 -0.999996 -0.001070915
vn 0 -0.9999984 -0.001427886
vn 0 -0.9999977 -0.002141829
vn 0 -0.9999984 -0.001427886
vn 0 -0.9999977 -0.002141829
vn 0 -0.9999988 -0.001070915
vn 0 -0.9999988 -0.001070915
vn 0 -0.9999977 -0.002141829
vn 0 -0.9999984 -0.001427886
vn 0 -0.9999977 -0.002141829
vn 0 -0.9999984 -0.001427886
vn 0 -0.9999977 -0.002141829
vn -0.001693661 -0.9999959 -0.001070915
vn -0.002258214 -0.9999953 -0.000713943
vn 0.002258214 -0.9999954 -0.000713943
vn 0.002258214 -0.9999962 0
vn 0.001693661 -0.9999971 0
vn 0.002258214 -0.9999954 0.0007139419
vn 0.001693661 -0.9999971 0
vn 0 -0.5 0
vn 0.002258214 -0.9999954 0.0007139419
vn 0.001693661 -0.9999959 0.001070913
vn -0.001693661 -0.9999971 0
vn -0.002258214 -0.9999961 0
vn -0.002258214 -0.9999953 -0.000713943
vn -0.002258214 -0.9999954 0.0007139421
vn -0.001693661 -0.9999971 0
vn -0.002258214 -0.9999954 0.0007139421
vn 0 -0.5 0
vn -0.001693661 -0.9999959 0.001070913
vn 0.002258214 -0.9999954 0.0007139419
vn 0.001693661 -0.9999959 0.001070913
vn 0 -0.9999977 0.002141826
vn 0 -0.9999984 0.001427884
vn 0 -0.9999977 0.002141826
vn 0 -0.9999984 0.001427884
vn 0 -0.9999977 0.002141826
vn 0 -0.9999988 0.001070913
vn 0 -0.9999977 0.002141826
vn 0 -0.9999988 0.001070913
vn 0 -0.9999984 0.001427884
vn 0 -0.9999977 0.002141826
vn 0 -0.9999984 0.001427884
vn -0.001693661 -0.9999959 0.001070913
vn 0 -0.9999977 0.002141826
vn -0.002258214 -0.9999954 0.0007139421
vn 0 -0.9999988 -0.001070915
vn 0 -0.9999984 -0.001427886
vn 0 -1 0
vn 0 -1 0
vn 0 -1 0
vn 0 -1 0
vn 0 -1 0
vn 0 -1 0
vn 0 -1 0
vn 0 -1 0
vn 0 -1 0
vn 0 -1 0
vn 0 -1 0
vn 0 -0.9999988 0.001070913
vn 0 -1 0
vn 0 -0.9999984 0.001427884
vn 0 -0.9999999 0
vn 0 -0.9999999 0
vn 0 -0.9999999 0
vn 0 -0.9999999 0
vn 0 -0.5 0
vn 0 -1 0
vn 0 -1 0
vn 0.001693661 -0.9999971 0
vn 0.001693661 -0.9999971 0
vn 0 -1 0
vn 0 -1 0
vn 0.002258214 -0.9999962 0
vn 0 -0.9999999 0
vn 0 -0.9999999 0
vn 0 -0.9999999 0
vn 0 -0.9999999 0
vn 0 -0.9999999 0
vn 0 -0.9999999 0
vn 0 -0.9999999 0
vn 0 -0.9999999 0
vn 0 -1 0
vn -0.001693661 -0.9999971 0
vn 0 -0.5 0
vn 0 -1 0
vn 0 -1 0
vn -0.002258214 -0.9999961 0
vn -0.001693661 -0.9999971 0
vn 0 -1 0
vn 0 -0.9999999 0
vn 0 -0.9999999 0
vn 0 -0.9999999 0
vn 0 -0.9999999 0
vn -0.9977221 -0.067458 0
vn -0.9977221 -0.067458 0
vn -0.9977221 -0.067458 0
vn -0.9977221 -0.067458 0
vn 0 -0.1470914 0.9891229
vn 0 -0.1470914 0.9891229
vn 0 -0.1470914 0.9891229
vn 0 -0.1470914 0.9891229
vn 0.9909807 0.1340044 0
vn 0.9909807 0.1340044 0
vn 0.9909808 0.1340044 0
vn 0.9909807 0.1340044 0
vn 0 0.2091322 -0.9778874
vn 0 0.2091322 -0.9778874
vn 0 0.2091322 -0.9778873
vn 0 0.2091322 -0.9778874
vn -0.9909807 0.1340044 0
vn -0.9909807 0.1340044 0
vn -0.9909807 0.1340044 0
vn -0.9909807 0.1340044 0
vn 0 -0.1470914 0.9891229
vn 0 -0.1470914 0.9891229
vn 0 -0.1470914 0.9891229
vn 0 -0.1470914 0.9891229
vn 0.9977221 -0.06745801 0
vn 0.9977221 -0.067458 0
vn 0.9977221 -0.06745801 0
vn 0.9977221 -0.06745801 0
vn 0 0.2091322 -0.9778874
vn 0 0.2091322 -0.9778874
vn 0 0.2091322 -0.9778874
vn 0 0.2091322 -0.9778874
vn -0.9909807 0.1340044 0
vn -0.9909808 0.1340044 0
vn -0.9909807 0.1340044 0
vn -0.9909807 0.1340044 0
vn 0 0.2091307 0.9778877
vn 0 0.2091307 0.9778877
vn 0 0.2091307 0.9778877
vn 0 0.2091307 0.9778877
vn 0.9977221 -0.067458 0
vn 0.9977221 -0.067458 0
vn 0.9977221 -0.067458 0
vn 0.9977221 -0.067458 0
vn 0 -0.1470898 -0.9891231
vn 0 -0.1470899 -0.9891231
vn 0 -0.1470898 -0.9891231
vn 0 -0.1470898 -0.9891231
vn -0.9977221 -0.067458 0
vn -0.9977221 -0.067458 0
vn -0.9977221 -0.067458 0
vn -0.9977221 -0.067458 0
vn 0 0.2091307 0.9778877
vn 0 0.2091307 0.9778877
vn 0 0.2091307 0.9778877
vn 0 0.2091307 0.9778877
vn 0.9909807 0.1340044 0
vn 0.9909808 0.1340044 0
vn 0.9909807 0.1340044 0
vn 0.9909807 0.1340044 0
vn 0 -0.1470898 -0.9891231
vn 0 -0.1470899 -0.9891231
vn 0 -0.1470899 -0.9891232
vn 0 -0.1470898 -0.9891231
vn 0.9999937 -0.002120574 -0.001346046
vn 0.9999937 -0.002120574 0.00134605
vn 0.9999937 -0.002120574 -0.001346046
vn 0.9999937 -0.002120574 0.00134605
vn 0.9999937 0.002120571 -0.001346046
vn 0.9999937 -0.002120574 -0.001346046
vn 0.9999937 0.002120571 -0.001346046
vn 0.9999937 -0.002120574 -0.001346046
vn 0.9999937 -0.002120574 0.00134605
vn 0.9999937 0.002120571 0.00134605
vn 0.9999937 -0.002120574 0.00134605
vn 0.9999937 0.002120571 0.00134605
vn 0.9999937 0.002120571 0.00134605
vn 0.9999937 0.002120571 -0.001346046
vn 0.9999937 0.002120571 0.00134605
vn 0.9999937 0.002120571 -0.001346046
vn 0.2378872 0.9712928 0
vn 0.2378872 0.9712928 0
vn 0.2378872 0.9712928 0
vn 0.2378872 0.9712928 0
vn 0.3599823 0 0.9329591
vn 0.3599823 0 0.9329591
vn 0.3599823 0 0.9329591
vn 0.3599823 0 0.9329591
vn 0.3599804 0 -0.9329599
vn 0.3599804 0 -0.9329598
vn 0.3599804 0 -0.9329599
vn 0.3599804 0 -0.9329599
vn 0.2378877 -0.9712927 0
vn 0.2378877 -0.9712927 0
vn 0.2378877 -0.9712927 0
vn 0.2378877 -0.9712927 0
vn 1 0 0
vn 1 0 0
vn 1 0 0
vn 1 0 0

vt 0.1844673 0.2037181
vt 0.1844673 -0.1667384
vt 0.09221077 -0.1667384
vt -0.09230232 -0.1667384
vt -0.1845589 -0.1667384
vt -0.1845589 0.2037181
vt -4.577637E-05 -0.1667384
vt -0.09230232 -0.1667384
vt -0.1845589 0.2037181
vt 0.1845589 0.2037181
vt 0.1845589 -0.1667384
vt 0.09230232 -0.1667384
vt -0.09221077 -0.1667384
vt -0.1844673 -0.1667384
vt -0.1844673 0.2037181
vt 4.577637E-05 -0.1667384
vt -0.09221077 -0.1667384
vt -0.1844673 0.2037181
vt 0.1839015 -0.2918115
vt 0.1543791 -0.2451217
vt 0.1543791 -0.1704458
vt -0.1544707 -0.1704458
vt -0.1544707 -0.2451217
vt -0.183993 -0.2918115
vt -0.0774498 0.2451217
vt -0.0774498 0.1704458
vt 4.577637E-05 0.2451217
vt -0.0774498 -0.1704458
vt -0.0774498 -0.2451217
vt 4.577637E-05 -0.2451217
vt 0.1844673 0.2037181
vt 0.09221077 -0.1667384
vt -4.577637E-05 -0.1667384
vt 0.1844673 0.2037181
vt 0.2918115 -0.1667384
vt -0.2918115 -0.1667384
vt 0.2918115 0.2037181
vt -0.2918115 0.2037181
vt 0.1845589 0.2037181
vt 0.09230232 -0.1667384
vt 4.577637E-05 -0.1667384
vt 0.1845589 0.2037181
vt -0.1844673 0.2918115
vt 0.1845589 0.2918115
vt -0.1844673 -0.2918115
vt 0.1845589 -0.2918115
vt 0.1844673 -0.2914537
vt 0.09221077 -0.2914537
vt 0.1549451 -0.2447638
vt 0.0774498 -0.2447638
vt -4.577637E-05 -0.2914537
vt 0.0774498 -0.2447638
vt 0.09221077 -0.2914537
vt -4.577637E-05 -0.2447638
vt -4.577637E-05 -0.2447638
vt -4.577637E-05 -0.2914537
vt -0.07754135 -0.2447638
vt -0.09230232 -0.2914537
vt -0.07754135 -0.2447638
vt -0.09230232 -0.2914537
vt -0.1550367 -0.2447638
vt -0.1845589 -0.2914537
vt 0.1839015 -0.2918115
vt 0.1543791 -0.1704458
vt 0.1543791 -2.538808E-13
vt 0.1839015 0.2918115
vt 0.1543791 -2.538808E-13
vt 0.1543791 0.1704458
vt 0.1839015 0.2918115
vt 0.1543791 0.2451217
vt -0.1544707 6.677308E-14
vt -0.1544707 -0.1704458
vt -0.183993 -0.2918115
vt -0.183993 0.2918115
vt -0.1544707 6.677308E-14
vt -0.183993 0.2918115
vt -0.1544707 0.1704458
vt -0.1544707 0.2451217
vt 0.1844673 0.2914537
vt 0.1549451 0.2447638
vt 0.09221077 0.2914537
vt 0.0774498 0.2447638
vt 0.09221077 0.2914537
vt 0.0774498 0.2447638
vt -4.577637E-05 0.2914537
vt -4.577637E-05 0.2447638
vt -4.577637E-05 0.2914537
vt -4.577637E-05 0.2447638
vt -0.07754135 0.2447638
vt -0.09230232 0.2914537
vt -0.07754135 0.2447638
vt -0.1550367 0.2447638
vt -0.09230232 0.2914537
vt -0.1845589 0.2914537
vt 4.577637E-05 -0.2451217
vt 0.07754135 -0.2451217
vt 0.07754135 -0.1704458
vt 0.07754135 -0.1704458
vt -0.0774498 -0.1704458
vt 0.07754135 -0.1704458
vt 0.07754135 1.253782E-15
vt -0.0774498 1.253782E-15
vt -0.0774498 1.253782E-15
vt 0.07754135 1.253782E-15
vt 0.07754135 0.1704458
vt -0.0774498 0.1704458
vt 0.07754135 0.1704458
vt 4.577637E-05 0.2451217
vt -0.0774498 0.1704458
vt 0.07754135 0.2451217
vt 0.1599324 -0.1759304
vt 0.07994342 -0.2530092
vt 0.07994342 -0.1759304
vt 0.1599324 -0.2530092
vt -0.1549451 0.1704458
vt -0.0774498 1.253782E-15
vt -0.0774498 0.1704458
vt -0.1549451 1.253782E-15
vt -0.1549451 1.253782E-15
vt -0.0774498 -0.1704458
vt -0.0774498 1.253782E-15
vt -0.1549451 -0.1704458
vt 0.1599324 0.2530091
vt 0.07994342 0.1759303
vt 0.07994342 0.2530091
vt 0.1599324 0.1759303
vt -0.08003497 -0.1759304
vt -0.1600239 -0.2530092
vt -0.1600239 -0.1759304
vt -0.08003497 -0.2530092
vt 0.07754135 0.1704458
vt 0.1550367 1.253782E-15
vt 0.1550367 0.1704458
vt 0.07754135 1.253782E-15
vt 0.07754135 1.253782E-15
vt 0.1550367 -0.1704458
vt 0.1550367 1.253782E-15
vt 0.07754135 -0.1704458
vt -0.08003497 0.2530091
vt -0.1600239 0.1759303
vt -0.1600239 0.2530091
vt -0.08003497 0.1759303
vt -0.2451217 -0.1716829
vt -0.1704458 -0.1716829
vt -0.2530092 -0.2086485
vt -0.1759304 -0.2086485
vt 0.0774498 -0.1900948
vt 0.1549451 -0.1900948
vt 0.07994342 -0.2273816
vt 0.1599324 -0.2273816
vt 0.1704458 -0.186097
vt 0.2451217 -0.186097
vt 0.1759304 -0.2233139
vt 0.2530092 -0.2233139
vt -0.1549451 -0.214412
vt -0.0774498 -0.214412
vt -0.1599324 -0.2521273
vt -0.07994342 -0.2521273
vt -0.2451217 -0.1861092
vt -0.1704458 -0.1861092
vt -0.2530092 -0.2233262
vt -0.1759304 -0.2233262
vt -0.1550367 -0.1900948
vt -0.07754135 -0.1900948
vt -0.1600239 -0.2273816
vt -0.08003497 -0.2273816
vt 0.1704458 -0.1716891
vt 0.2451217 -0.1716891
vt 0.1759304 -0.2086546
vt 0.2530092 -0.2086546
vt 0.07754135 -0.214412
vt 0.1550367 -0.214412
vt 0.08003497 -0.2521273
vt 0.1600239 -0.2521273
vt 0.1704458 -0.1861092
vt 0.2451217 -0.1861092
vt 0.1759303 -0.2233262
vt 0.2530091 -0.2233262
vt -0.1550367 -0.2144116
vt -0.07754135 -0.2144116
vt -0.1600239 -0.2521269
vt -0.08003497 -0.2521269
vt -0.2451217 -0.1716891
vt -0.1704458 -0.1716891
vt -0.2530091 -0.2086546
vt -0.1759303 -0.2086546
vt 0.07754135 -0.1900945
vt 0.1550367 -0.1900945
vt 0.08003497 -0.2273814
vt 0.1600239 -0.2273814
vt 0.1704458 -0.1716829
vt 0.2451217 -0.1716829
vt 0.1759303 -0.2086485
vt 0.2530091 -0.2086485
vt 0.0774498 -0.2144116
vt 0.1549451 -0.2144116
vt 0.07994342 -0.2521269
vt 0.1599324 -0.2521269
vt -0.2451217 -0.186097
vt -0.1704458 -0.186097
vt -0.2530091 -0.2233139
vt -0.1759303 -0.2233139
vt -0.1549451 -0.1900945
vt -0.0774498 -0.1900945
vt -0.1599324 -0.2273814
vt -0.07994342 -0.2273814
vt 0.2918115 -0.1659545
vt -0.2918115 -0.1659545
vt 0.2547039 -0.1424002
vt -0.254704 -0.1424002
vt 0.2913138 0.2037181
vt 0.2913138 -0.1667384
vt 0.2542061 0.1801639
vt 0.2542061 -0.1431842
vt -0.2913138 -0.1667384
vt -0.2913138 0.2037181
vt -0.2542062 -0.1431842
vt -0.2542062 0.1801639
vt -0.2918115 0.2029339
vt 0.2918115 0.2029339
vt -0.254704 0.1793795
vt 0.2547039 0.1793795
vt -0.2133305 -0.2547039
vt -0.2133305 0.254704
vt -0.1861455 -0.2445157
vt -0.1861455 0.2445158
vt 0.2638825 0.1801639
vt 0.2638825 -0.1431842
vt 0.2355805 0.1736969
vt 0.2355805 -0.1367173
vt -0.2638822 -0.1431842
vt -0.2638822 0.1801639
vt -0.2355803 -0.1367173
vt -0.2355803 0.1736969
vt 0.2221276 0.254704
vt 0.2221276 -0.2547039
vt 0.1949425 0.2445158
vt 0.1949425 -0.2445157
vt 0.2445157 -0.1367173
vt -0.2445158 -0.1367173
vt 0.2445157 0.1736969
vt -0.2445158 0.1736969

g Radio_0
usemtl DungeonMat2
f 34/34/34 9/9/9 8/8/8 7/7/7
f 42/42/42 18/18/18 17/17/17 16/16/16
f 98/98/98 30/30/30 29/29/29 28/28/28
f 37/37/37 38/38/38 36/36/36 35/35/35
f 45/45/45 46/46/46 44/44/44 43/43/43
f 49/49/49 50/50/50 48/48/48 47/47/47
f 54/54/54 51/51/51 53/53/53 52/52/52
f 57/57/57 58/58/58 56/56/56 55/55/55
f 61/61/61 62/62/62 60/60/60 59/59/59
f 66/66/66 65/65/65 64/64/64 63/63/63
f 69/69/69 70/70/70 68/68/68 67/67/67
f 74/74/74 73/73/73 72/72/72 71/71/71
f 77/77/77 78/78/78 76/76/76 75/75/75
f 81/81/81 82/82/82 80/80/80 79/79/79
f 85/85/85 86/86/86 84/84/84 83/83/83
f 90/90/90 89/89/89 88/88/88 87/87/87
f 93/93/93 94/94/94 92/92/92 91/91/91
f 102/102/102 101/101/101 100/100/100 99/99/99
f 106/106/106 105/105/105 104/104/104 103/103/103
f 110/110/110 107/107/107 109/109/109 108/108/108
f 114/114/114 111/111/111 113/113/113 112/112/112
f 118/118/118 115/115/115 117/117/117 116/116/116
f 122/122/122 119/119/119 121/121/121 120/120/120
f 126/126/126 123/123/123 125/125/125 124/124/124
f 130/130/130 127/127/127 129/129/129 128/128/128
f 134/134/134 131/131/131 133/133/133 132/132/132
f 138/138/138 135/135/135 137/137/137 136/136/136
f 142/142/142 139/139/139 141/141/141 140/140/140
f 145/145/145 146/146/146 144/144/144 143/143/143
f 149/149/149 150/150/150 148/148/148 147/147/147
f 153/153/153 154/154/154 152/152/152 151/151/151
f 157/157/157 158/158/158 156/156/156 155/155/155
f 161/161/161 162/162/162 160/160/160 159/159/159
f 165/165/165 166/166/166 164/164/164 163/163/163
f 169/169/169 170/170/170 168/168/168 167/167/167
f 173/173/173 174/174/174 172/172/172 171/171/171
f 177/177/177 178/178/178 176/176/176 175/175/175
f 181/181/181 182/182/182 180/180/180 179/179/179
f 185/185/185 186/186/186 184/184/184 183/183/183
f 189/189/189 190/190/190 188/188/188 187/187/187
f 193/193/193 194/194/194 192/192/192 191/191/191
f 197/197/197 198/198/198 196/196/196 195/195/195
f 201/201/201 202/202/202 200/200/200 199/199/199
f 205/205/205 206/206/206 204/204/204 203/203/203
f 209/209/209 210/210/210 208/208/208 207/207/207
f 213/213/213 214/214/214 212/212/212 211/211/211
f 217/217/217 218/218/218 216/216/216 215/215/215
f 221/221/221 222/222/222 220/220/220 219/219/219
f 225/225/225 226/226/226 224/224/224 223/223/223
f 229/229/229 230/230/230 228/228/228 227/227/227
f 233/233/233 234/234/234 232/232/232 231/231/231
f 237/237/237 238/238/238 236/236/236 235/235/235

g Radio_1
usemtl RadioTexture
f 241/241/241 242/242/242 240/240/240 239/239/239

g Radio_2
usemtl DungeonMat2
f 3/3/3 2/2/2 1/1/1
f 6/6/6 5/5/5 4/4/4
f 12/12/12 11/11/11 10/10/10
f 15/15/15 14/14/14 13/13/13
f 21/21/21 20/20/20 19/19/19
f 24/24/24 23/23/23 22/22/22
f 27/27/27 26/26/26 25/25/25
f 33/33/33 32/32/32 31/31/31
f 41/41/41 40/40/40 39/39/39
f 97/97/97 96/96/96 95/95/95

